<svg xmlns="http://www.w3.org/2000/svg" viewBox="0 0 64 64">
    <defs>
        <linearGradient id="gradient" x1="0%" y1="0%" x2="100%" y2="100%">
            <stop offset="0%" style="stop-color:#8A2BE2;stop-opacity:1" />
            <stop offset="100%" style="stop-color:#BA55D3;stop-opacity:1" />
        </linearGradient>
    </defs>
    <circle cx="32" cy="32" r="30" fill="url(#gradient)" />
    <path d="M20 25h24v2H20z" fill="#fff" />
    <path d="M20 32h24v2H20z" fill="#fff" />
    <path d="M20 39h16v2H20z" fill="#fff" />
    <rect x="29" y="25" width="2" height="16" rx="1" fill="#8A2BE2" />
    <rect x="21" y="27" width="2" height="8" rx="1" fill="#BA55D3" />
    <rect x="41" y="27" width="2" height="8" rx="1" fill="#BA55D3" />
    <path d="M30 15h4v8h-4z" fill="#fff" />
    <path d="M32 17v2c1.11 0 2 .89 2 2s-.89 2-2 2v2h-4v-2c-1.11 0-2-.89-2-2s.89-2 2-2v-2h4z" fill="#8A2BE2" />
</svg>